<?xml version="1.0" encoding="UTF-8" standalone="no"?>
<!DOCTYPE svg PUBLIC "-//W3C//DTD SVG 1.1//EN"
 "http://www.w3.org/Graphics/SVG/1.1/DTD/svg11.dtd">
<!-- Generated by graphviz version 7.0.0 (20221023.0053)
 -->
<!-- Title: pkgviz Pages: 1 -->
<svg width="895pt" height="871pt"
 viewBox="0.00 0.00 894.53 871.03" xmlns="http://www.w3.org/2000/svg" xmlns:xlink="http://www.w3.org/1999/xlink">
<g id="graph0" class="graph" transform="scale(1 1) rotate(0) translate(4 867.03)">
<title>pkgviz</title>
<polygon fill="white" stroke="none" points="-4,4 -4,-867.03 890.53,-867.03 890.53,4 -4,4"/>
<!-- math -->
<g id="node1" class="node">
<title>math</title>
<ellipse fill="#b2dfee" stroke="#b2dfee" cx="445.39" cy="-430.12" rx="28.7" ry="18"/>
<text text-anchor="middle" x="445.39" y="-426.42" font-family="Times,serif" font-size="14.00">math</text>
</g>
<!-- acos -->
<g id="node2" class="node">
<title>acos</title>
<ellipse fill="#b2dfee" stroke="#b2dfee" cx="698.02" cy="-313.12" rx="27" ry="18"/>
<text text-anchor="middle" x="698.02" y="-309.42" font-family="Times,serif" font-size="14.00">acos</text>
</g>
<!-- math&#45;&gt;acos -->
<g id="edge1" class="edge">
<title>math&#45;&gt;acos</title>
<path fill="none" stroke="black" d="M468.7,-419.32C513.86,-398.41 613.37,-352.32 665.19,-328.32"/>
<polygon fill="black" stroke="black" points="666.52,-331.57 674.12,-324.19 663.57,-325.21 666.52,-331.57"/>
</g>
<!-- acosh -->
<g id="node3" class="node">
<title>acosh</title>
<ellipse fill="#b2dfee" stroke="#b2dfee" cx="367.72" cy="-18" rx="30.59" ry="18"/>
<text text-anchor="middle" x="367.72" y="-14.3" font-family="Times,serif" font-size="14.00">acosh</text>
</g>
<!-- math&#45;&gt;acosh -->
<g id="edge2" class="edge">
<title>math&#45;&gt;acosh</title>
<path fill="none" stroke="black" d="M441.95,-411.88C429.72,-346.98 388.24,-126.91 373.21,-47.16"/>
<polygon fill="black" stroke="black" points="376.69,-46.7 371.4,-37.52 369.81,-47.99 376.69,-46.7"/>
</g>
<!-- asin -->
<g id="node4" class="node">
<title>asin</title>
<ellipse fill="#b2dfee" stroke="#b2dfee" cx="213.58" cy="-777.18" rx="27" ry="18"/>
<text text-anchor="middle" x="213.58" y="-773.48" font-family="Times,serif" font-size="14.00">asin</text>
</g>
<!-- math&#45;&gt;asin -->
<g id="edge3" class="edge">
<title>math&#45;&gt;asin</title>
<path fill="none" stroke="black" d="M434.21,-446.86C396.87,-502.75 276.32,-683.25 231.01,-751.08"/>
<polygon fill="black" stroke="black" points="228.13,-749.09 225.49,-759.35 233.95,-752.98 228.13,-749.09"/>
</g>
<!-- asinh -->
<g id="node5" class="node">
<title>asinh</title>
<ellipse fill="#b2dfee" stroke="#b2dfee" cx="579.71" cy="-297.85" rx="29.5" ry="18"/>
<text text-anchor="middle" x="579.71" y="-294.15" font-family="Times,serif" font-size="14.00">asinh</text>
</g>
<!-- math&#45;&gt;asinh -->
<g id="edge4" class="edge">
<title>math&#45;&gt;asinh</title>
<path fill="none" stroke="black" d="M461.06,-414.69C484.51,-391.59 528.91,-347.87 556.24,-320.96"/>
<polygon fill="black" stroke="black" points="558.39,-323.76 563.06,-314.25 553.47,-318.77 558.39,-323.76"/>
</g>
<!-- atan -->
<g id="node6" class="node">
<title>atan</title>
<ellipse fill="#b2dfee" stroke="#b2dfee" cx="225.41" cy="-375.75" rx="27" ry="18"/>
<text text-anchor="middle" x="225.41" y="-372.05" font-family="Times,serif" font-size="14.00">atan</text>
</g>
<!-- math&#45;&gt;atan -->
<g id="edge5" class="edge">
<title>math&#45;&gt;atan</title>
<path fill="none" stroke="black" d="M418.42,-423.45C379.13,-413.74 306.07,-395.68 261.98,-384.79"/>
<polygon fill="black" stroke="black" points="262.92,-381.41 252.37,-382.41 261.24,-388.21 262.92,-381.41"/>
</g>
<!-- atan2 -->
<g id="node7" class="node">
<title>atan2</title>
<ellipse fill="#b2dfee" stroke="#b2dfee" cx="141.99" cy="-151.57" rx="29.8" ry="18"/>
<text text-anchor="middle" x="141.99" y="-147.87" font-family="Times,serif" font-size="14.00">atan2</text>
</g>
<!-- math&#45;&gt;atan2 -->
<g id="edge6" class="edge">
<title>math&#45;&gt;atan2</title>
<path fill="none" stroke="black" d="M429.08,-415.14C378.98,-369.15 227.13,-229.74 166.95,-174.48"/>
<polygon fill="black" stroke="black" points="169.6,-172.17 159.87,-167.98 164.87,-177.32 169.6,-172.17"/>
</g>
<!-- atanh -->
<g id="node8" class="node">
<title>atanh</title>
<ellipse fill="#b2dfee" stroke="#b2dfee" cx="725.61" cy="-136.21" rx="29.8" ry="18"/>
<text text-anchor="middle" x="725.61" y="-132.51" font-family="Times,serif" font-size="14.00">atanh</text>
</g>
<!-- math&#45;&gt;atanh -->
<g id="edge7" class="edge">
<title>math&#45;&gt;atanh</title>
<path fill="none" stroke="black" d="M460.46,-414.32C506.74,-365.78 647.05,-218.6 702.61,-160.34"/>
<polygon fill="black" stroke="black" points="705.06,-162.84 709.43,-153.19 699.99,-158.01 705.06,-162.84"/>
</g>
<!-- ceil -->
<g id="node9" class="node">
<title>ceil</title>
<ellipse fill="#b2dfee" stroke="#b2dfee" cx="328.24" cy="-81.63" rx="27" ry="18"/>
<text text-anchor="middle" x="328.24" y="-77.93" font-family="Times,serif" font-size="14.00">ceil</text>
</g>
<!-- math&#45;&gt;ceil -->
<g id="edge8" class="edge">
<title>math&#45;&gt;ceil</title>
<path fill="none" stroke="black" d="M439.42,-412.36C420.38,-355.73 361.01,-179.12 337.74,-109.88"/>
<polygon fill="black" stroke="black" points="341.19,-109.15 334.68,-100.79 334.55,-111.39 341.19,-109.15"/>
</g>
<!-- comb -->
<g id="node10" class="node">
<title>comb</title>
<ellipse fill="#b2dfee" stroke="#b2dfee" cx="580.16" cy="-48.83" rx="30.59" ry="18"/>
<text text-anchor="middle" x="580.16" y="-45.13" font-family="Times,serif" font-size="14.00">comb</text>
</g>
<!-- math&#45;&gt;comb -->
<g id="edge9" class="edge">
<title>math&#45;&gt;comb</title>
<path fill="none" stroke="black" d="M451.71,-412.24C473.24,-351.32 543.86,-151.53 570.17,-77.11"/>
<polygon fill="black" stroke="black" points="573.32,-78.69 573.35,-68.1 566.72,-76.36 573.32,-78.69"/>
</g>
<!-- copysign -->
<g id="node11" class="node">
<title>copysign</title>
<ellipse fill="#b2dfee" stroke="#b2dfee" cx="426.65" cy="-92.35" rx="42.49" ry="18"/>
<text text-anchor="middle" x="426.65" y="-88.65" font-family="Times,serif" font-size="14.00">copysign</text>
</g>
<!-- math&#45;&gt;copysign -->
<g id="edge10" class="edge">
<title>math&#45;&gt;copysign</title>
<path fill="none" stroke="black" d="M444.38,-411.96C441.31,-356.63 432.06,-189.81 428.28,-121.75"/>
<polygon fill="black" stroke="black" points="431.8,-121.9 427.75,-112.11 424.81,-122.29 431.8,-121.9"/>
</g>
<!-- cos -->
<g id="node12" class="node">
<title>cos</title>
<ellipse fill="#b2dfee" stroke="#b2dfee" cx="27" cy="-428.02" rx="27" ry="18"/>
<text text-anchor="middle" x="27" y="-424.32" font-family="Times,serif" font-size="14.00">cos</text>
</g>
<!-- math&#45;&gt;cos -->
<g id="edge11" class="edge">
<title>math&#45;&gt;cos</title>
<path fill="none" stroke="black" d="M416.3,-429.97C342.65,-429.6 148.75,-428.63 65.68,-428.22"/>
<polygon fill="black" stroke="black" points="65.78,-424.72 55.77,-428.17 65.75,-431.72 65.78,-424.72"/>
</g>
<!-- cosh -->
<g id="node13" class="node">
<title>cosh</title>
<ellipse fill="#b2dfee" stroke="#b2dfee" cx="846.44" cy="-332.7" rx="27" ry="18"/>
<text text-anchor="middle" x="846.44" y="-329" font-family="Times,serif" font-size="14.00">cosh</text>
</g>
<!-- math&#45;&gt;cosh -->
<g id="edge12" class="edge">
<title>math&#45;&gt;cosh</title>
<path fill="none" stroke="black" d="M472.64,-423.5C542.88,-406.44 730.15,-360.95 809.78,-341.61"/>
<polygon fill="black" stroke="black" points="810.36,-345.07 819.25,-339.31 808.71,-338.27 810.36,-345.07"/>
</g>
<!-- degrees -->
<g id="node14" class="node">
<title>degrees</title>
<ellipse fill="#b2dfee" stroke="#b2dfee" cx="718.34" cy="-524.78" rx="37.89" ry="18"/>
<text text-anchor="middle" x="718.34" y="-521.08" font-family="Times,serif" font-size="14.00">degrees</text>
</g>
<!-- math&#45;&gt;degrees -->
<g id="edge13" class="edge">
<title>math&#45;&gt;degrees</title>
<path fill="none" stroke="black" d="M470.58,-438.85C517.6,-455.16 619.14,-490.38 676.56,-510.29"/>
<polygon fill="black" stroke="black" points="675.41,-513.6 686,-513.57 677.7,-506.98 675.41,-513.6"/>
</g>
<!-- dist -->
<g id="node15" class="node">
<title>dist</title>
<ellipse fill="#b2dfee" stroke="#b2dfee" cx="419.5" cy="-750.15" rx="27" ry="18"/>
<text text-anchor="middle" x="419.5" y="-746.45" font-family="Times,serif" font-size="14.00">dist</text>
</g>
<!-- math&#45;&gt;dist -->
<g id="edge14" class="edge">
<title>math&#45;&gt;dist</title>
<path fill="none" stroke="black" d="M443.92,-448.24C439.65,-501.03 427.19,-655.08 421.91,-720.36"/>
<polygon fill="black" stroke="black" points="418.42,-720.07 421.11,-730.32 425.4,-720.63 418.42,-720.07"/>
</g>
<!-- erf -->
<g id="node16" class="node">
<title>erf</title>
<ellipse fill="#b2dfee" stroke="#b2dfee" cx="525.83" cy="-131.33" rx="27" ry="18"/>
<text text-anchor="middle" x="525.83" y="-127.63" font-family="Times,serif" font-size="14.00">erf</text>
</g>
<!-- math&#45;&gt;erf -->
<g id="edge15" class="edge">
<title>math&#45;&gt;erf</title>
<path fill="none" stroke="black" d="M450.18,-412.32C463.59,-362.51 501.59,-221.37 518.06,-160.19"/>
<polygon fill="black" stroke="black" points="521.35,-161.43 520.57,-150.87 514.59,-159.62 521.35,-161.43"/>
</g>
<!-- erfc -->
<g id="node17" class="node">
<title>erfc</title>
<ellipse fill="#b2dfee" stroke="#b2dfee" cx="656.44" cy="-81.37" rx="27" ry="18"/>
<text text-anchor="middle" x="656.44" y="-77.67" font-family="Times,serif" font-size="14.00">erfc</text>
</g>
<!-- math&#45;&gt;erfc -->
<g id="edge16" class="edge">
<title>math&#45;&gt;erfc</title>
<path fill="none" stroke="black" d="M455.57,-413.3C489.48,-357.26 598.81,-176.6 640.28,-108.07"/>
<polygon fill="black" stroke="black" points="643.15,-110.1 645.33,-99.73 637.16,-106.47 643.15,-110.1"/>
</g>
<!-- exp -->
<g id="node18" class="node">
<title>exp</title>
<ellipse fill="#b2dfee" stroke="#b2dfee" cx="102.12" cy="-662.36" rx="27" ry="18"/>
<text text-anchor="middle" x="102.12" y="-658.66" font-family="Times,serif" font-size="14.00">exp</text>
</g>
<!-- math&#45;&gt;exp -->
<g id="edge17" class="edge">
<title>math&#45;&gt;exp</title>
<path fill="none" stroke="black" d="M425.45,-443.61C367.35,-482.92 198.06,-597.45 130.47,-643.18"/>
<polygon fill="black" stroke="black" points="128.84,-640.06 122.52,-648.57 132.76,-645.86 128.84,-640.06"/>
</g>
<!-- expm1 -->
<g id="node19" class="node">
<title>expm1</title>
<ellipse fill="#b2dfee" stroke="#b2dfee" cx="61.77" cy="-577.43" rx="35.19" ry="18"/>
<text text-anchor="middle" x="61.77" y="-573.73" font-family="Times,serif" font-size="14.00">expm1</text>
</g>
<!-- math&#45;&gt;expm1 -->
<g id="edge18" class="edge">
<title>math&#45;&gt;expm1</title>
<path fill="none" stroke="black" d="M420.51,-439.67C355.42,-464.67 179.66,-532.16 100.89,-562.4"/>
<polygon fill="black" stroke="black" points="99.93,-559.02 91.85,-565.87 102.44,-565.56 99.93,-559.02"/>
</g>
<!-- fabs -->
<g id="node20" class="node">
<title>fabs</title>
<ellipse fill="#b2dfee" stroke="#b2dfee" cx="182.63" cy="-591.65" rx="27" ry="18"/>
<text text-anchor="middle" x="182.63" y="-587.95" font-family="Times,serif" font-size="14.00">fabs</text>
</g>
<!-- math&#45;&gt;fabs -->
<g id="edge19" class="edge">
<title>math&#45;&gt;fabs</title>
<path fill="none" stroke="black" d="M424.77,-442.79C378.51,-471.23 266.3,-540.21 212.44,-573.32"/>
<polygon fill="black" stroke="black" points="210.76,-570.24 204.08,-578.46 214.43,-576.21 210.76,-570.24"/>
</g>
<!-- factorial -->
<g id="node21" class="node">
<title>factorial</title>
<ellipse fill="#b2dfee" stroke="#b2dfee" cx="312.41" cy="-269.17" rx="40.09" ry="18"/>
<text text-anchor="middle" x="312.41" y="-265.47" font-family="Times,serif" font-size="14.00">factorial</text>
</g>
<!-- math&#45;&gt;factorial -->
<g id="edge20" class="edge">
<title>math&#45;&gt;factorial</title>
<path fill="none" stroke="black" d="M431.91,-413.8C408.73,-385.75 361.17,-328.19 333.55,-294.76"/>
<polygon fill="black" stroke="black" points="336.36,-292.66 327.29,-287.18 330.96,-297.12 336.36,-292.66"/>
</g>
<!-- floor -->
<g id="node22" class="node">
<title>floor</title>
<ellipse fill="#b2dfee" stroke="#b2dfee" cx="192.48" cy="-228.52" rx="27.9" ry="18"/>
<text text-anchor="middle" x="192.48" y="-224.82" font-family="Times,serif" font-size="14.00">floor</text>
</g>
<!-- math&#45;&gt;floor -->
<g id="edge21" class="edge">
<title>math&#45;&gt;floor</title>
<path fill="none" stroke="black" d="M427.61,-415.94C383.89,-381.1 270.98,-291.09 219.18,-249.8"/>
<polygon fill="black" stroke="black" points="221.43,-247.12 211.43,-243.62 217.07,-252.59 221.43,-247.12"/>
</g>
<!-- fmod -->
<g id="node23" class="node">
<title>fmod</title>
<ellipse fill="#b2dfee" stroke="#b2dfee" cx="580.49" cy="-712.38" rx="29.8" ry="18"/>
<text text-anchor="middle" x="580.49" y="-708.68" font-family="Times,serif" font-size="14.00">fmod</text>
</g>
<!-- math&#45;&gt;fmod -->
<g id="edge22" class="edge">
<title>math&#45;&gt;fmod</title>
<path fill="none" stroke="black" d="M453.84,-447.77C476.63,-495.39 539.51,-626.76 567.16,-684.52"/>
<polygon fill="black" stroke="black" points="563.91,-685.85 571.39,-693.36 570.23,-682.83 563.91,-685.85"/>
</g>
<!-- frexp -->
<g id="node24" class="node">
<title>frexp</title>
<ellipse fill="#b2dfee" stroke="#b2dfee" cx="675.4" cy="-771.71" rx="29.5" ry="18"/>
<text text-anchor="middle" x="675.4" y="-768.01" font-family="Times,serif" font-size="14.00">frexp</text>
</g>
<!-- math&#45;&gt;frexp -->
<g id="edge23" class="edge">
<title>math&#45;&gt;frexp</title>
<path fill="none" stroke="black" d="M456.8,-447.06C494.04,-502.37 612.3,-678.01 657.55,-745.21"/>
<polygon fill="black" stroke="black" points="654.59,-747.07 663.08,-753.41 660.4,-743.16 654.59,-747.07"/>
</g>
<!-- fsum -->
<g id="node25" class="node">
<title>fsum</title>
<ellipse fill="#b2dfee" stroke="#b2dfee" cx="342.72" cy="-825.48" rx="28.7" ry="18"/>
<text text-anchor="middle" x="342.72" y="-821.78" font-family="Times,serif" font-size="14.00">fsum</text>
</g>
<!-- math&#45;&gt;fsum -->
<g id="edge24" class="edge">
<title>math&#45;&gt;fsum</title>
<path fill="none" stroke="black" d="M440.71,-448.13C424.44,-510.78 370.24,-719.51 350.23,-796.57"/>
<polygon fill="black" stroke="black" points="346.94,-795.34 347.81,-805.9 353.71,-797.1 346.94,-795.34"/>
</g>
<!-- gamma -->
<g id="node26" class="node">
<title>gamma</title>
<ellipse fill="#b2dfee" stroke="#b2dfee" cx="488.96" cy="-20.5" rx="37.89" ry="18"/>
<text text-anchor="middle" x="488.96" y="-16.8" font-family="Times,serif" font-size="14.00">gamma</text>
</g>
<!-- math&#45;&gt;gamma -->
<g id="edge25" class="edge">
<title>math&#45;&gt;gamma</title>
<path fill="none" stroke="black" d="M447.35,-411.72C454.23,-347.01 477.36,-129.52 485.82,-49.96"/>
<polygon fill="black" stroke="black" points="489.27,-50.66 486.84,-40.35 482.31,-49.92 489.27,-50.66"/>
</g>
<!-- gcd -->
<g id="node27" class="node">
<title>gcd</title>
<ellipse fill="#b2dfee" stroke="#b2dfee" cx="741.03" cy="-716.44" rx="27" ry="18"/>
<text text-anchor="middle" x="741.03" y="-712.74" font-family="Times,serif" font-size="14.00">gcd</text>
</g>
<!-- math&#45;&gt;gcd -->
<g id="edge26" class="edge">
<title>math&#45;&gt;gcd</title>
<path fill="none" stroke="black" d="M461.28,-445.51C510.22,-492.91 658.84,-636.84 717.17,-693.33"/>
<polygon fill="black" stroke="black" points="714.71,-695.82 724.33,-700.26 719.58,-690.79 714.71,-695.82"/>
</g>
<!-- hypot -->
<g id="node28" class="node">
<title>hypot</title>
<ellipse fill="#b2dfee" stroke="#b2dfee" cx="310.17" cy="-500.05" rx="30.59" ry="18"/>
<text text-anchor="middle" x="310.17" y="-496.35" font-family="Times,serif" font-size="14.00">hypot</text>
</g>
<!-- math&#45;&gt;hypot -->
<g id="edge27" class="edge">
<title>math&#45;&gt;hypot</title>
<path fill="none" stroke="black" d="M423.06,-441.67C401.4,-452.87 368.27,-470.01 343.49,-482.82"/>
<polygon fill="black" stroke="black" points="342.06,-479.62 334.78,-487.32 345.27,-485.84 342.06,-479.62"/>
</g>
<!-- isclose -->
<g id="node29" class="node">
<title>isclose</title>
<ellipse fill="#b2dfee" stroke="#b2dfee" cx="273.81" cy="-140.34" rx="34.39" ry="18"/>
<text text-anchor="middle" x="273.81" y="-136.64" font-family="Times,serif" font-size="14.00">isclose</text>
</g>
<!-- math&#45;&gt;isclose -->
<g id="edge28" class="edge">
<title>math&#45;&gt;isclose</title>
<path fill="none" stroke="black" d="M435.17,-412.86C406.45,-364.35 324.84,-226.52 289.95,-167.6"/>
<polygon fill="black" stroke="black" points="293.07,-166 284.97,-159.18 287.05,-169.56 293.07,-166"/>
</g>
<!-- isfinite -->
<g id="node30" class="node">
<title>isfinite</title>
<ellipse fill="#b2dfee" stroke="#b2dfee" cx="783.92" cy="-197.15" rx="35.19" ry="18"/>
<text text-anchor="middle" x="783.92" y="-193.45" font-family="Times,serif" font-size="14.00">isfinite</text>
</g>
<!-- math&#45;&gt;isfinite -->
<g id="edge29" class="edge">
<title>math&#45;&gt;isfinite</title>
<path fill="none" stroke="black" d="M465.05,-416.59C521.54,-377.71 684.62,-265.48 753.08,-218.37"/>
<polygon fill="black" stroke="black" points="754.97,-221.32 761.23,-212.77 751,-215.55 754.97,-221.32"/>
</g>
<!-- isinf -->
<g id="node31" class="node">
<title>isinf</title>
<ellipse fill="#b2dfee" stroke="#b2dfee" cx="466.02" cy="-664.18" rx="27" ry="18"/>
<text text-anchor="middle" x="466.02" y="-660.48" font-family="Times,serif" font-size="14.00">isinf</text>
</g>
<!-- math&#45;&gt;isinf -->
<g id="edge30" class="edge">
<title>math&#45;&gt;isinf</title>
<path fill="none" stroke="black" d="M447.01,-448.48C450.56,-488.82 459.08,-585.45 463.41,-634.51"/>
<polygon fill="black" stroke="black" points="459.91,-634.73 464.28,-644.39 466.89,-634.12 459.91,-634.73"/>
</g>
<!-- isnan -->
<g id="node32" class="node">
<title>isnan</title>
<ellipse fill="#b2dfee" stroke="#b2dfee" cx="604.68" cy="-445.03" rx="29.5" ry="18"/>
<text text-anchor="middle" x="604.68" y="-441.33" font-family="Times,serif" font-size="14.00">isnan</text>
</g>
<!-- math&#45;&gt;isnan -->
<g id="edge31" class="edge">
<title>math&#45;&gt;isnan</title>
<path fill="none" stroke="black" d="M474.24,-432.82C499.26,-435.16 535.77,-438.58 563.8,-441.2"/>
<polygon fill="black" stroke="black" points="563.45,-444.68 573.73,-442.13 564.1,-437.71 563.45,-444.68"/>
</g>
<!-- isqrt -->
<g id="node33" class="node">
<title>isqrt</title>
<ellipse fill="#b2dfee" stroke="#b2dfee" cx="214.24" cy="-86.14" rx="27" ry="18"/>
<text text-anchor="middle" x="214.24" y="-82.44" font-family="Times,serif" font-size="14.00">isqrt</text>
</g>
<!-- math&#45;&gt;isqrt -->
<g id="edge32" class="edge">
<title>math&#45;&gt;isqrt</title>
<path fill="none" stroke="black" d="M434.24,-413.53C397.1,-358.26 277.35,-180.06 231.93,-112.47"/>
<polygon fill="black" stroke="black" points="234.87,-110.57 226.39,-104.23 229.06,-114.48 234.87,-110.57"/>
</g>
<!-- lcm -->
<g id="node34" class="node">
<title>lcm</title>
<ellipse fill="#b2dfee" stroke="#b2dfee" cx="283.12" cy="-654.15" rx="27" ry="18"/>
<text text-anchor="middle" x="283.12" y="-650.45" font-family="Times,serif" font-size="14.00">lcm</text>
</g>
<!-- math&#45;&gt;lcm -->
<g id="edge33" class="edge">
<title>math&#45;&gt;lcm</title>
<path fill="none" stroke="black" d="M433.46,-446.59C405.44,-485.27 335.29,-582.12 301.66,-628.55"/>
<polygon fill="black" stroke="black" points="298.99,-626.27 295.96,-636.43 304.66,-630.38 298.99,-626.27"/>
</g>
<!-- ldexp -->
<g id="node35" class="node">
<title>ldexp</title>
<ellipse fill="#b2dfee" stroke="#b2dfee" cx="656.72" cy="-632.93" rx="30.59" ry="18"/>
<text text-anchor="middle" x="656.72" y="-629.23" font-family="Times,serif" font-size="14.00">ldexp</text>
</g>
<!-- math&#45;&gt;ldexp -->
<g id="edge34" class="edge">
<title>math&#45;&gt;ldexp</title>
<path fill="none" stroke="black" d="M461.27,-445.36C497.9,-480.51 588.48,-567.44 632.26,-609.46"/>
<polygon fill="black" stroke="black" points="629.63,-611.78 639.27,-616.18 634.47,-606.73 629.63,-611.78"/>
</g>
<!-- lgamma -->
<g id="node36" class="node">
<title>lgamma</title>
<ellipse fill="#b2dfee" stroke="#b2dfee" cx="442.63" cy="-231.61" rx="40.09" ry="18"/>
<text text-anchor="middle" x="442.63" y="-227.91" font-family="Times,serif" font-size="14.00">lgamma</text>
</g>
<!-- math&#45;&gt;lgamma -->
<g id="edge35" class="edge">
<title>math&#45;&gt;lgamma</title>
<path fill="none" stroke="black" d="M445.14,-411.8C444.66,-377.38 443.62,-302.78 443.04,-261.17"/>
<polygon fill="black" stroke="black" points="446.55,-261.35 442.91,-251.4 439.55,-261.45 446.55,-261.35"/>
</g>
<!-- log -->
<g id="node37" class="node">
<title>log</title>
<ellipse fill="#b2dfee" stroke="#b2dfee" cx="494.34" cy="-566.93" rx="27" ry="18"/>
<text text-anchor="middle" x="494.34" y="-563.23" font-family="Times,serif" font-size="14.00">log</text>
</g>
<!-- math&#45;&gt;log -->
<g id="edge36" class="edge">
<title>math&#45;&gt;log</title>
<path fill="none" stroke="black" d="M451.79,-448C460,-470.95 474.34,-511.02 484.08,-538.25"/>
<polygon fill="black" stroke="black" points="480.77,-539.38 487.43,-547.62 487.36,-537.02 480.77,-539.38"/>
</g>
<!-- log10 -->
<g id="node38" class="node">
<title>log10</title>
<ellipse fill="#b2dfee" stroke="#b2dfee" cx="596.57" cy="-812.92" rx="30.59" ry="18"/>
<text text-anchor="middle" x="596.57" y="-809.22" font-family="Times,serif" font-size="14.00">log10</text>
</g>
<!-- math&#45;&gt;log10 -->
<g id="edge37" class="edge">
<title>math&#45;&gt;log10</title>
<path fill="none" stroke="black" d="M452.38,-447.81C476.41,-508.65 555.77,-709.6 585.34,-784.47"/>
<polygon fill="black" stroke="black" points="582,-785.55 588.93,-793.56 588.51,-782.98 582,-785.55"/>
</g>
<!-- log1p -->
<g id="node39" class="node">
<title>log1p</title>
<ellipse fill="#b2dfee" stroke="#b2dfee" cx="69.32" cy="-491.55" rx="30.59" ry="18"/>
<text text-anchor="middle" x="69.32" y="-487.85" font-family="Times,serif" font-size="14.00">log1p</text>
</g>
<!-- math&#45;&gt;log1p -->
<g id="edge38" class="edge">
<title>math&#45;&gt;log1p</title>
<path fill="none" stroke="black" d="M417.12,-434.74C351.24,-445.5 187.24,-472.29 110.34,-484.85"/>
<polygon fill="black" stroke="black" points="110.01,-481.36 100.7,-486.43 111.14,-488.27 110.01,-481.36"/>
</g>
<!-- log2 -->
<g id="node40" class="node">
<title>log2</title>
<ellipse fill="#b2dfee" stroke="#b2dfee" cx="63.58" cy="-366.43" rx="27" ry="18"/>
<text text-anchor="middle" x="63.58" y="-362.73" font-family="Times,serif" font-size="14.00">log2</text>
</g>
<!-- math&#45;&gt;log2 -->
<g id="edge39" class="edge">
<title>math&#45;&gt;log2</title>
<path fill="none" stroke="black" d="M417.31,-425.43C349.66,-414.15 177.59,-385.45 101.16,-372.7"/>
<polygon fill="black" stroke="black" points="102.1,-369.31 91.66,-371.11 100.95,-376.21 102.1,-369.31"/>
</g>
<!-- modf -->
<g id="node41" class="node">
<title>modf</title>
<ellipse fill="#b2dfee" stroke="#b2dfee" cx="290.8" cy="-771.46" rx="29.8" ry="18"/>
<text text-anchor="middle" x="290.8" y="-767.76" font-family="Times,serif" font-size="14.00">modf</text>
</g>
<!-- math&#45;&gt;modf -->
<g id="edge40" class="edge">
<title>math&#45;&gt;modf</title>
<path fill="none" stroke="black" d="M437.51,-447.51C412.45,-502.85 334.41,-675.17 303.55,-743.32"/>
<polygon fill="black" stroke="black" points="300.41,-741.76 299.48,-752.31 306.79,-744.65 300.41,-741.76"/>
</g>
<!-- nextafter -->
<g id="node42" class="node">
<title>nextafter</title>
<ellipse fill="#b2dfee" stroke="#b2dfee" cx="170.99" cy="-708.18" rx="42.49" ry="18"/>
<text text-anchor="middle" x="170.99" y="-704.48" font-family="Times,serif" font-size="14.00">nextafter</text>
</g>
<!-- math&#45;&gt;nextafter -->
<g id="edge41" class="edge">
<title>math&#45;&gt;nextafter</title>
<path fill="none" stroke="black" d="M430.25,-445.46C385.04,-491.27 250.78,-627.32 195.35,-683.49"/>
<polygon fill="black" stroke="black" points="193.05,-680.83 188.52,-690.41 198.04,-685.75 193.05,-680.83"/>
</g>
<!-- perm -->
<g id="node43" class="node">
<title>perm</title>
<ellipse fill="#b2dfee" stroke="#b2dfee" cx="177.13" cy="-485.06" rx="29.5" ry="18"/>
<text text-anchor="middle" x="177.13" y="-481.36" font-family="Times,serif" font-size="14.00">perm</text>
</g>
<!-- math&#45;&gt;perm -->
<g id="edge42" class="edge">
<title>math&#45;&gt;perm</title>
<path fill="none" stroke="black" d="M417.69,-435.79C369.82,-445.59 271.49,-465.74 216.52,-476.99"/>
<polygon fill="black" stroke="black" points="216.06,-473.52 206.96,-478.95 217.46,-480.37 216.06,-473.52"/>
</g>
<!-- pow -->
<g id="node44" class="node">
<title>pow</title>
<ellipse fill="#b2dfee" stroke="#b2dfee" cx="768.48" cy="-632.05" rx="27" ry="18"/>
<text text-anchor="middle" x="768.48" y="-628.35" font-family="Times,serif" font-size="14.00">pow</text>
</g>
<!-- math&#45;&gt;pow -->
<g id="edge43" class="edge">
<title>math&#45;&gt;pow</title>
<path fill="none" stroke="black" d="M466.09,-443.06C521.62,-477.76 674.01,-573.01 738.76,-613.47"/>
<polygon fill="black" stroke="black" points="736.75,-616.35 747.08,-618.68 740.46,-610.41 736.75,-616.35"/>
</g>
<!-- prod -->
<g id="node45" class="node">
<title>prod</title>
<ellipse fill="#b2dfee" stroke="#b2dfee" cx="765.03" cy="-416.36" rx="27" ry="18"/>
<text text-anchor="middle" x="765.03" y="-412.66" font-family="Times,serif" font-size="14.00">prod</text>
</g>
<!-- math&#45;&gt;prod -->
<g id="edge44" class="edge">
<title>math&#45;&gt;prod</title>
<path fill="none" stroke="black" d="M474.32,-428.87C532.04,-426.39 661.53,-420.81 726.42,-418.02"/>
<polygon fill="black" stroke="black" points="726.4,-421.52 736.24,-417.6 726.1,-414.53 726.4,-421.52"/>
</g>
<!-- radians -->
<g id="node46" class="node">
<title>radians</title>
<ellipse fill="#b2dfee" stroke="#b2dfee" cx="90.28" cy="-234.07" rx="36.29" ry="18"/>
<text text-anchor="middle" x="90.28" y="-230.37" font-family="Times,serif" font-size="14.00">radians</text>
</g>
<!-- math&#45;&gt;radians -->
<g id="edge45" class="edge">
<title>math&#45;&gt;radians</title>
<path fill="none" stroke="black" d="M423.44,-418C363.63,-384.98 197.39,-293.21 124.86,-253.17"/>
<polygon fill="black" stroke="black" points="126.63,-250.15 116.19,-248.38 123.25,-256.28 126.63,-250.15"/>
</g>
<!-- remainder -->
<g id="node47" class="node">
<title>remainder</title>
<ellipse fill="#b2dfee" stroke="#b2dfee" cx="796.66" cy="-271.89" rx="46.59" ry="18"/>
<text text-anchor="middle" x="796.66" y="-268.19" font-family="Times,serif" font-size="14.00">remainder</text>
</g>
<!-- math&#45;&gt;remainder -->
<g id="edge46" class="edge">
<title>math&#45;&gt;remainder</title>
<path fill="none" stroke="black" d="M468.98,-419.49C527.78,-393.01 681.39,-323.81 755.49,-290.43"/>
<polygon fill="black" stroke="black" points="756.77,-293.7 764.45,-286.4 753.9,-287.32 756.77,-293.7"/>
</g>
<!-- sin -->
<g id="node48" class="node">
<title>sin</title>
<ellipse fill="#b2dfee" stroke="#b2dfee" cx="639.31" cy="-187.79" rx="27" ry="18"/>
<text text-anchor="middle" x="639.31" y="-184.09" font-family="Times,serif" font-size="14.00">sin</text>
</g>
<!-- math&#45;&gt;sin -->
<g id="edge47" class="edge">
<title>math&#45;&gt;sin</title>
<path fill="none" stroke="black" d="M458.41,-413.84C491.6,-372.37 579.52,-262.5 619.28,-212.82"/>
<polygon fill="black" stroke="black" points="621.88,-215.17 625.4,-205.18 616.41,-210.8 621.88,-215.17"/>
</g>
<!-- sinh -->
<g id="node49" class="node">
<title>sinh</title>
<ellipse fill="#b2dfee" stroke="#b2dfee" cx="838.8" cy="-510.73" rx="27" ry="18"/>
<text text-anchor="middle" x="838.8" y="-507.03" font-family="Times,serif" font-size="14.00">sinh</text>
</g>
<!-- math&#45;&gt;sinh -->
<g id="edge48" class="edge">
<title>math&#45;&gt;sinh</title>
<path fill="none" stroke="black" d="M473.05,-435.79C542.26,-449.97 722.95,-486.99 801.47,-503.08"/>
<polygon fill="black" stroke="black" points="800.74,-506.5 811.24,-505.08 802.15,-499.64 800.74,-506.5"/>
</g>
<!-- sqrt -->
<g id="node50" class="node">
<title>sqrt</title>
<ellipse fill="#b2dfee" stroke="#b2dfee" cx="859.53" cy="-424.98" rx="27" ry="18"/>
<text text-anchor="middle" x="859.53" y="-421.28" font-family="Times,serif" font-size="14.00">sqrt</text>
</g>
<!-- math&#45;&gt;sqrt -->
<g id="edge49" class="edge">
<title>math&#45;&gt;sqrt</title>
<path fill="none" stroke="black" d="M474.51,-429.76C547.51,-428.85 738.35,-426.48 820.74,-425.46"/>
<polygon fill="black" stroke="black" points="820.61,-428.96 830.57,-425.34 820.52,-421.96 820.61,-428.96"/>
</g>
<!-- tan -->
<g id="node51" class="node">
<title>tan</title>
<ellipse fill="#b2dfee" stroke="#b2dfee" cx="93.53" cy="-305.97" rx="27" ry="18"/>
<text text-anchor="middle" x="93.53" y="-302.27" font-family="Times,serif" font-size="14.00">tan</text>
</g>
<!-- math&#45;&gt;tan -->
<g id="edge50" class="edge">
<title>math&#45;&gt;tan</title>
<path fill="none" stroke="black" d="M420.08,-421.19C358.16,-399.34 198.92,-343.16 128.23,-318.22"/>
<polygon fill="black" stroke="black" points="129.69,-315.02 119.1,-315 127.36,-321.62 129.69,-315.02"/>
</g>
<!-- tanh -->
<g id="node52" class="node">
<title>tanh</title>
<ellipse fill="#b2dfee" stroke="#b2dfee" cx="830.48" cy="-602.72" rx="27" ry="18"/>
<text text-anchor="middle" x="830.48" y="-599.02" font-family="Times,serif" font-size="14.00">tanh</text>
</g>
<!-- math&#45;&gt;tanh -->
<g id="edge51" class="edge">
<title>math&#45;&gt;tanh</title>
<path fill="none" stroke="black" d="M469.19,-440.78C535.3,-470.42 721.32,-553.79 797.41,-587.89"/>
<polygon fill="black" stroke="black" points="795.88,-591.04 806.43,-591.94 798.74,-584.65 795.88,-591.04"/>
</g>
<!-- trunc -->
<g id="node53" class="node">
<title>trunc</title>
<ellipse fill="#b2dfee" stroke="#b2dfee" cx="516.42" cy="-830.22" rx="28.7" ry="18"/>
<text text-anchor="middle" x="516.42" y="-826.52" font-family="Times,serif" font-size="14.00">trunc</text>
</g>
<!-- math&#45;&gt;trunc -->
<g id="edge52" class="edge">
<title>math&#45;&gt;trunc</title>
<path fill="none" stroke="black" d="M448.63,-448.35C459.88,-511.75 497.38,-722.98 511.22,-800.96"/>
<polygon fill="black" stroke="black" points="507.7,-801.16 512.9,-810.39 514.59,-799.93 507.7,-801.16"/>
</g>
<!-- ulp -->
<g id="node54" class="node">
<title>ulp</title>
<ellipse fill="#b2dfee" stroke="#b2dfee" cx="429.04" cy="-845.03" rx="27" ry="18"/>
<text text-anchor="middle" x="429.04" y="-841.33" font-family="Times,serif" font-size="14.00">ulp</text>
</g>
<!-- math&#45;&gt;ulp -->
<g id="edge53" class="edge">
<title>math&#45;&gt;ulp</title>
<path fill="none" stroke="black" d="M444.67,-448.48C442.09,-513.82 433.36,-735.39 430.2,-815.67"/>
<polygon fill="black" stroke="black" points="426.71,-815.24 429.82,-825.37 433.71,-815.51 426.71,-815.24"/>
</g>
</g>
</svg>
