<?xml version="1.0" encoding="UTF-8" standalone="no"?>
<!-- Created with Inkscape (http://www.inkscape.org/) -->

<svg
   width="67.707771mm"
   height="14.41761mm"
   viewBox="0 0 88.020104 18.742893"
   version="1.1"
   id="svg5"
   inkscape:version="1.1.2 (0a00cf5339, 2022-02-04)"
   sodipodi:docname="logo-restore-dark.svg"
   inkscape:export-filename="/home/sia/logo-restore-dark.png"
   inkscape:export-xdpi="299.49484"
   inkscape:export-ydpi="299.49484"
   xmlns:inkscape="http://www.inkscape.org/namespaces/inkscape"
   xmlns:sodipodi="http://sodipodi.sourceforge.net/DTD/sodipodi-0.dtd"
   xmlns="http://www.w3.org/2000/svg"
   xmlns:svg="http://www.w3.org/2000/svg">
  <sodipodi:namedview
     id="namedview7"
     pagecolor="#ffffff"
     bordercolor="#666666"
     borderopacity="1.0"
     inkscape:pageshadow="2"
     inkscape:pageopacity="0.0"
     inkscape:pagecheckerboard="0"
     inkscape:document-units="mm"
     showgrid="false"
     fit-margin-top="0"
     fit-margin-left="0"
     fit-margin-right="0"
     fit-margin-bottom="0"
     inkscape:zoom="3.4368881"
     inkscape:cx="128.89567"
     inkscape:cy="7.7104634"
     inkscape:window-width="1920"
     inkscape:window-height="1006"
     inkscape:window-x="0"
     inkscape:window-y="25"
     inkscape:window-maximized="1"
     inkscape:current-layer="layer1"
     scale-x="1.3"
     inkscape:snap-global="false" />
  <defs
     id="defs2" />
  <g
     inkscape:label="Layer 1"
     inkscape:groupmode="layer"
     id="layer1"
     transform="translate(-42.4911,-137.29865)">
    <path
       id="text4344"
       style="font-style:normal;font-weight:normal;font-size:13.7583px;line-height:1.25;font-family:sans-serif;fill:#e9e9e9;fill-opacity:1;stroke:none;stroke-width:0.343958"
       sodipodi:type="inkscape:offset"
       inkscape:radius="0.10152581"
       inkscape:original="M 70.964844 136.86523 C 70.637905 136.86523 70.306599 136.88076 69.970703 136.91211 C 69.634807 136.94346 69.31155 136.99475 68.998047 137.06641 C 68.689023 137.13359 68.396242 137.22673 68.123047 137.34766 C 67.849851 137.4641 67.610313 137.61049 67.404297 137.78516 C 67.202759 137.95982 67.044178 138.16831 66.927734 138.41016 C 66.81129 138.64752 66.753906 138.92144 66.753906 139.23047 C 66.753906 139.54397 66.825434 139.81927 66.96875 140.05664 C 67.116544 140.29401 67.31227 140.50388 67.558594 140.6875 C 67.809396 140.86664 68.102176 141.02384 68.433594 141.1582 C 68.76949 141.29256 69.122416 141.41204 69.494141 141.51953 C 69.865866 141.62702 70.24846 141.72821 70.642578 141.82227 C 71.041175 141.91184 71.427103 142.00694 71.798828 142.10547 C 72.170553 142.19952 72.522098 142.3021 72.853516 142.41406 C 73.189412 142.52603 73.480239 142.65494 73.726562 142.80273 C 73.977365 142.94605 74.175044 143.11406 74.318359 143.30664 C 74.466154 143.49922 74.539062 143.72323 74.539062 143.97852 C 74.539062 144.2965 74.447295 144.5657 74.263672 144.78516 C 74.084527 145.00461 73.830845 145.18343 73.503906 145.32227 C 73.176967 145.45662 72.789658 145.55644 72.341797 145.61914 C 71.893936 145.68184 71.407383 145.71289 70.878906 145.71289 C 70.130978 145.71289 69.415124 145.64608 68.734375 145.51172 C 68.058104 145.37736 67.415732 145.12839 66.806641 144.76562 L 66.806641 145.79297 C 67.397818 145.99451 68.01857 146.15309 68.667969 146.26953 C 69.321846 146.38598 70.049891 146.44531 70.851562 146.44531 C 71.200894 146.44531 71.55382 146.42979 71.912109 146.39844 C 72.274877 146.37157 72.625042 146.32166 72.960938 146.25 C 73.301312 146.17834 73.618474 146.08186 73.914062 145.96094 C 74.21413 145.83554 74.473907 145.68167 74.693359 145.49805 C 74.91729 145.30995 75.09473 145.08731 75.224609 144.83203 C 75.354489 144.57227 75.419922 144.27063 75.419922 143.92578 C 75.419922 143.6078 75.34506 143.32778 75.197266 143.08594 C 75.05395 142.84409 74.858224 142.62951 74.607422 142.44141 C 74.361098 142.2533 74.068318 142.09001 73.732422 141.95117 C 73.401004 141.80786 73.048079 141.68032 72.671875 141.56836 C 72.30015 141.45192 71.914222 141.34267 71.515625 141.24414 L 70.361328 140.95703 C 69.989603 140.8585 69.634724 140.75397 69.298828 140.64648 C 68.967411 140.53452 68.676584 140.4117 68.425781 140.27734 C 68.179458 140.14299 67.981779 139.98912 67.833984 139.81445 C 67.690669 139.63979 67.619141 139.43601 67.619141 139.20312 C 67.619141 138.92545 67.695383 138.68591 67.847656 138.48438 C 68.004408 138.28284 68.228421 138.11621 68.519531 137.98633 C 68.81512 137.85197 69.174713 137.75411 69.595703 137.69141 C 70.021171 137.62871 70.504963 137.59766 71.046875 137.59766 C 71.494736 137.59766 71.902285 137.62399 72.269531 137.67773 C 72.636778 137.727 72.96475 137.7891 73.255859 137.86523 C 73.551448 137.94137 73.814559 138.02842 74.042969 138.12695 C 74.271378 138.221 74.471818 138.31139 74.646484 138.39648 L 74.646484 137.42969 C 74.355375 137.35355 74.065928 137.28202 73.779297 137.21484 C 73.497144 137.14766 73.206317 137.08833 72.90625 137.03906 C 72.610662 136.98532 72.302929 136.94346 71.980469 136.91211 C 71.662487 136.88076 71.323133 136.86523 70.964844 136.86523 z M 92.732422 136.86523 C 92.181552 136.86523 91.653948 136.90709 91.152344 136.99219 C 90.650739 137.0728 90.181092 137.20033 89.742188 137.375 C 89.307762 137.54519 88.911023 137.75977 88.552734 138.01953 C 88.198924 138.27929 87.897287 138.58898 87.646484 138.94727 C 87.395682 139.30108 87.201337 139.70391 87.0625 140.15625 C 86.923663 140.60411 86.853516 141.10343 86.853516 141.6543 C 86.853516 142.48284 87.002667 143.20007 87.302734 143.80469 C 87.602801 144.40482 88.018399 144.9008 88.546875 145.29492 C 89.075351 145.68456 89.697484 145.97401 90.414062 146.16211 C 91.130641 146.35021 91.903878 146.44531 92.732422 146.44531 C 93.556487 146.44531 94.323057 146.35021 95.035156 146.16211 C 95.747256 145.97401 96.366627 145.68456 96.890625 145.29492 C 97.414623 144.9008 97.826886 144.40482 98.126953 143.80469 C 98.42702 143.20007 98.576172 142.48284 98.576172 141.6543 C 98.576172 140.82575 98.42702 140.11185 98.126953 139.51172 C 97.826886 138.90711 97.414623 138.40917 96.890625 138.01953 C 96.366627 137.62541 95.747256 137.33459 95.035156 137.14648 C 94.323057 136.95838 93.556487 136.86523 92.732422 136.86523 z M 127.68555 136.93164 C 126.8794 136.93164 126.14192 137.04836 125.47461 137.28125 C 124.8073 137.51414 124.23312 137.84073 123.75391 138.26172 C 123.27469 138.68271 122.90153 139.18674 122.63281 139.77344 C 122.36857 140.36014 122.23633 141.00584 122.23633 141.70898 C 122.23633 142.43452 122.37467 143.0877 122.65234 143.66992 C 122.93002 144.25214 123.32538 144.75008 123.83594 145.16211 C 124.35098 145.56966 124.97311 145.88211 125.70312 146.10156 C 126.43314 146.32101 127.24962 146.43164 128.1543 146.43164 C 128.54394 146.43164 128.9002 146.4175 129.22266 146.39062 C 129.5496 146.36823 129.87009 146.33109 130.18359 146.27734 C 130.4971 146.22808 130.81621 146.16265 131.13867 146.08203 C 131.46113 145.99694 131.80934 145.89574 132.18555 145.7793 L 132.18555 144.80469 C 132.0064 144.91665 131.77629 145.02728 131.49414 145.13477 C 131.21199 145.23777 130.90092 145.33092 130.56055 145.41602 C 130.22017 145.49663 129.86391 145.56206 129.49219 145.61133 C 129.12046 145.66059 128.75339 145.68555 128.39062 145.68555 C 127.53969 145.68555 126.79279 145.59987 126.15234 145.42969 C 125.51638 145.25502 124.97992 145.00605 124.54102 144.68359 C 124.10659 144.36113 123.77057 143.97106 123.5332 143.50977 C 123.29584 143.04847 123.15278 142.53029 123.10352 141.95703 L 132.94531 141.95703 L 132.94531 141.74805 C 132.94531 141.0046 132.82859 140.33727 132.5957 139.74609 C 132.36282 139.15044 132.02208 138.64503 131.57422 138.22852 C 131.12636 137.812 130.57575 137.49151 129.92188 137.26758 C 129.268 137.04365 128.52305 136.93164 127.68555 136.93164 z M 45.34375 137.0332 L 45.34375 146.26367 L 46.183594 146.26367 L 46.183594 142.3125 L 49.9375 142.3125 C 50.076337 142.3125 50.211917 142.31112 50.341797 142.30664 C 50.471677 142.30216 50.599208 142.29607 50.724609 142.28711 L 53.701172 146.26367 L 54.755859 146.26367 L 51.603516 142.19141 C 52.409666 142.03913 52.994654 141.75774 53.357422 141.3457 C 53.72019 140.92919 53.902344 140.37525 53.902344 139.68555 C 53.902344 139.24216 53.827482 138.85485 53.679688 138.52344 C 53.531893 138.19202 53.29707 137.91672 52.974609 137.69727 C 52.656628 137.47333 52.247698 137.30866 51.746094 137.20117 C 51.244489 137.08921 50.640642 137.0332 49.9375 137.0332 L 45.34375 137.0332 z M 56.804688 137.0332 L 56.804688 146.26367 L 64.597656 146.26367 L 64.597656 145.47656 L 57.716797 145.47656 L 57.716797 141.77539 L 64.154297 141.77539 L 64.154297 140.99609 L 57.716797 140.99609 L 57.716797 137.81836 L 64.496094 137.81836 L 64.496094 137.0332 L 56.804688 137.0332 z M 76.728516 137.0332 L 76.728516 137.79883 L 80.927734 137.79883 L 80.927734 146.26367 L 81.761719 146.26367 L 81.761719 137.79883 L 85.958984 137.79883 L 85.958984 137.0332 L 76.728516 137.0332 z M 101.03516 137.0332 L 101.03516 146.26367 L 101.875 146.26367 L 101.875 142.3125 L 105.63086 142.3125 C 105.7697 142.3125 105.90332 142.31112 106.0332 142.30664 C 106.16308 142.30216 106.29061 142.29607 106.41602 142.28711 L 109.39258 146.26367 L 110.44727 146.26367 L 107.29688 142.19141 C 108.10303 142.03913 108.68606 141.75774 109.04883 141.3457 C 109.4116 140.92919 109.59375 140.37525 109.59375 139.68555 C 109.59375 139.24216 109.51889 138.85485 109.37109 138.52344 C 109.2233 138.19202 108.98848 137.91672 108.66602 137.69727 C 108.34803 137.47333 107.9391 137.30866 107.4375 137.20117 C 106.9359 137.08921 106.334 137.0332 105.63086 137.0332 L 101.03516 137.0332 z M 112.49609 137.0332 L 112.49609 146.26367 L 120.28906 146.26367 L 120.28906 145.47656 L 113.41016 145.47656 L 113.41016 141.77539 L 119.8457 141.77539 L 119.8457 140.99609 L 113.41016 140.99609 L 113.41016 137.81836 L 120.1875 137.81836 L 120.1875 137.0332 L 112.49609 137.0332 z M 92.732422 137.61133 C 93.552008 137.61133 94.270623 137.69976 94.888672 137.87891 C 95.511199 138.05357 96.030755 138.31335 96.447266 138.6582 C 96.863777 138.99858 97.176224 139.42027 97.386719 139.92188 C 97.601692 140.42348 97.708984 141.00042 97.708984 141.6543 C 97.708984 142.30817 97.601692 142.88707 97.386719 143.38867 C 97.176224 143.89028 96.863777 144.31335 96.447266 144.6582 C 96.030755 144.99858 95.511199 145.25836 94.888672 145.4375 C 94.270623 145.61217 93.552008 145.69922 92.732422 145.69922 C 91.912836 145.69922 91.189506 145.61217 90.5625 145.4375 C 89.939973 145.25836 89.417083 144.99858 88.996094 144.6582 C 88.575104 144.31335 88.257942 143.89028 88.042969 143.38867 C 87.827995 142.88707 87.720703 142.30817 87.720703 141.6543 C 87.720703 141.00938 87.827995 140.43715 88.042969 139.93555 C 88.257942 139.42946 88.575104 139.00639 88.996094 138.66602 C 89.417083 138.32116 89.939973 138.05805 90.5625 137.87891 C 91.189506 137.69976 91.912836 137.61133 92.732422 137.61133 z M 127.67188 137.67773 C 128.43772 137.67773 129.09423 137.77422 129.64062 137.9668 C 130.19149 138.15938 130.64228 138.41915 130.99609 138.74609 C 131.35438 139.07303 131.62359 139.45091 131.80273 139.88086 C 131.98188 140.30633 132.08779 140.75435 132.11914 141.22461 L 123.10352 141.22461 C 123.16174 140.74988 123.2987 140.30047 123.51367 139.875 C 123.72865 139.44505 124.02419 139.06855 124.40039 138.74609 C 124.77659 138.41915 125.23543 138.15938 125.77734 137.9668 C 126.31926 137.77422 126.95082 137.67773 127.67188 137.67773 z M 46.183594 137.81836 L 49.044922 137.81836 C 49.783893 137.81836 50.406026 137.84331 50.912109 137.89258 C 51.422671 137.93736 51.834935 138.02775 52.148438 138.16211 C 52.46194 138.29647 52.687335 138.4861 52.826172 138.73242 C 52.965009 138.97427 53.035156 139.29143 53.035156 139.68555 C 53.035156 140.08414 52.963628 140.40464 52.820312 140.64648 C 52.681475 140.88385 52.452747 141.07072 52.134766 141.20508 C 51.816784 141.33496 51.40314 141.42201 50.892578 141.4668 C 50.382016 141.5071 49.756549 141.52734 49.017578 141.52734 L 46.183594 141.52734 L 46.183594 137.81836 z M 101.875 137.81836 L 104.73633 137.81836 C 105.4753 137.81836 106.09743 137.84331 106.60352 137.89258 C 107.11408 137.93736 107.52634 138.02775 107.83984 138.16211 C 108.15335 138.29647 108.38069 138.4861 108.51953 138.73242 C 108.65837 138.97427 108.72656 139.29143 108.72656 139.68555 C 108.72656 140.08414 108.65503 140.40464 108.51172 140.64648 C 108.37288 140.88385 108.14415 141.07072 107.82617 141.20508 C 107.50819 141.33496 107.09455 141.42201 106.58398 141.4668 C 106.07342 141.5071 105.44796 141.52734 104.70898 141.52734 L 101.875 141.52734 L 101.875 137.81836 z "
       d="m 70.964844,136.76367 c -0.330154,0 -0.664949,0.0152 -1.003906,0.0469 -0.340097,0.0317 -0.668305,0.0836 -0.986329,0.15625 -0.314365,0.0685 -0.613031,0.16336 -0.892578,0.28711 -0.281062,0.11997 -0.530275,0.2718 -0.74414,0.45312 a 0.10153597,0.10153597 0 0 0 0,0.002 c -0.211837,0.18359 -0.379774,0.40249 -0.501953,0.65625 -0.124239,0.25325 -0.183594,0.54364 -0.183594,0.86524 0,0.32894 0.07693,0.6246 0.230468,0.87891 0.15486,0.24871 0.359852,0.46978 0.615235,0.66015 a 0.10153597,0.10153597 0 0 0 0.002,0 c 0.258353,0.18453 0.556854,0.34553 0.894531,0.48242 a 0.10153597,0.10153597 0 0 0 0.002,0 c 0.339395,0.13576 0.695775,0.25693 1.070313,0.36524 0.373249,0.10793 0.756664,0.21025 1.152344,0.30469 a 0.10153597,0.10153597 0 0 0 0.002,0 c 0.397276,0.0893 0.781802,0.18303 1.152344,0.28124 0.369462,0.0935 0.718266,0.19563 1.046874,0.30665 a 0.10153597,0.10153597 0 0 0 0.002,0 c 0.330396,0.11013 0.613136,0.2378 0.851562,0.38085 a 0.10153597,0.10153597 0 0 0 0.002,0 c 0.24108,0.13777 0.427042,0.29717 0.560547,0.47657 a 0.10153597,0.10153597 0 0 0 0.002,0.002 c 0.134463,0.17521 0.199219,0.37342 0.199219,0.60938 0,0.29844 -0.08387,0.54129 -0.251953,0.74218 -0.166539,0.20401 -0.405241,0.37385 -0.720703,0.50782 -0.317218,0.13035 -0.695551,0.22925 -1.136719,0.29101 -0.44242,0.0619 -0.924718,0.0918 -1.449219,0.0918 -0.741882,0 -1.451243,-0.0662 -2.125,-0.19922 -0.664811,-0.13208 -1.294857,-0.37721 -1.894531,-0.73438 a 0.10153597,0.10153597 0 0 0 -0.154297,0.0879 v 1.02735 a 0.10153597,0.10153597 0 0 0 0.06836,0.0957 c 0.596326,0.2033 1.222855,0.36319 1.876953,0.48047 0.660823,0.11769 1.394491,0.17774 2.201171,0.17774 0.351698,0 0.707879,-0.0154 1.06836,-0.0469 0.367204,-0.0272 0.72193,-0.0777 1.0625,-0.15039 0.345909,-0.0728 0.669076,-0.17153 0.970703,-0.29492 0.308095,-0.12876 0.576402,-0.28751 0.804687,-0.47852 0.233918,-0.19649 0.420634,-0.42994 0.556641,-0.69726 a 0.10153597,0.10153597 0 0 0 0,-0.002 c 0.13784,-0.27568 0.207031,-0.59348 0.207031,-0.95117 0,-0.33297 -0.07919,-0.63254 -0.236328,-0.89062 l -0.002,-0.002 c -0.14999,-0.25237 -0.354985,-0.47774 -0.613281,-0.67187 l -0.002,-0.002 c -0.253779,-0.19347 -0.553545,-0.36087 -0.894531,-0.50196 h -0.002 c -0.334364,-0.1445 -0.689888,-0.27401 -1.068359,-0.38672 h -0.002 c -0.372448,-0.11663 -0.760695,-0.22543 -1.160156,-0.32422 h -0.002 l -1.152343,-0.2871 c -0.370004,-0.0981 -0.722318,-0.20357 -1.056641,-0.31055 -0.326023,-0.11027 -0.611435,-0.2306 -0.855469,-0.36133 -0.237761,-0.12968 -0.424548,-0.27642 -0.5625,-0.43945 -0.128497,-0.15719 -0.191406,-0.33344 -0.191406,-0.54493 0,-0.25841 0.06897,-0.4729 0.207031,-0.65624 0.144623,-0.18595 0.353512,-0.34414 0.632813,-0.46876 a 0.10153597,0.10153597 0 0 0 0.002,0 c 0.284257,-0.1292 0.63473,-0.22543 1.048828,-0.2871 0.419269,-0.0618 0.897513,-0.0918 1.435547,-0.0918 0.443882,0 0.845732,0.0252 1.207031,0.0781 a 0.10153597,0.10153597 0 0 0 0.002,0.002 c 0.364,0.0488 0.688484,0.10876 0.97461,0.18359 0.29158,0.0751 0.549142,0.1619 0.771484,0.25781 a 0.10153597,0.10153597 0 0 0 0.002,0 c 0.226569,0.0933 0.425033,0.18349 0.597656,0.26758 a 0.10153597,0.10153597 0 0 0 0.146485,-0.0918 v -0.96679 a 0.10153597,0.10153597 0 0 0 -0.07617,-0.0977 c -0.291988,-0.0764 -0.581705,-0.14943 -0.869141,-0.2168 -0.283736,-0.0675 -0.577015,-0.12616 -0.878906,-0.17578 h -0.002 c -0.298096,-0.0541 -0.607376,-0.0974 -0.931641,-0.1289 -0.321743,-0.0317 -0.664167,-0.0469 -1.02539,-0.0469 z m 21.767578,0 c -0.556013,0 -1.089891,0.0428 -1.597656,0.12891 -0.507645,0.0817 -0.984003,0.2113 -1.429688,0.38867 -0.441865,0.1731 -0.847278,0.39118 -1.21289,0.65625 -0.362651,0.26625 -0.672716,0.58407 -0.929688,0.95117 h 0.002 c -0.257517,0.36329 -0.457935,0.7767 -0.599609,1.23828 -0.142293,0.45901 -0.212891,0.96786 -0.212891,1.52735 0,0.84072 0.15066,1.57405 0.458985,2.19531 a 0.10153597,0.10153597 0 0 0 0.002,0 c 0.30683,0.61366 0.732687,1.12407 1.273437,1.52734 0.539778,0.39798 1.174985,0.69189 1.902344,0.88282 0.725799,0.19052 1.507437,0.2871 2.34375,0.28711 0.831876,0 1.606801,-0.0966 2.328125,-0.28711 0.72291,-0.19096 1.355206,-0.48468 1.890625,-0.88282 0.536254,-0.40334 0.958929,-0.91395 1.265625,-1.52734 a 0.10153597,0.10153597 0 0 0 0.002,0 c 0.308325,-0.62126 0.458984,-1.35459 0.458984,-2.19531 0,-0.84074 -0.152485,-1.5706 -0.460937,-2.1875 h 0.002 c -0.306661,-0.6179 -0.730806,-1.13016 -1.267578,-1.5293 -0.535538,-0.4028 -1.167598,-0.69768 -1.890625,-0.88867 -0.721492,-0.19058 -1.496409,-0.28516 -2.328125,-0.28516 z m 34.953128,0.0664 c -0.81595,0 -1.56483,0.11839 -2.24414,0.35547 -0.67809,0.23665 -1.26405,0.56965 -1.75391,1 -0.48977,0.43026 -0.87211,0.94588 -1.14648,1.54492 a 0.10153597,0.10153597 0 0 0 0,0.002 c -0.27049,0.60057 -0.40625,1.2607 -0.40625,1.97656 0,0.73845 0.14105,1.40689 0.42578,2.00391 0.28411,0.59572 0.6892,1.1063 1.21093,1.52734 a 0.10153597,0.10153597 0 0 0 0.002,0.002 c 0.52643,0.41657 1.16016,0.73451 1.90039,0.95703 0.741,0.22275 1.56751,0.33398 2.48047,0.33398 0.39209,0 0.75048,-0.0139 1.07617,-0.041 0.32941,-0.0226 0.65217,-0.061 0.96875,-0.11524 0.31669,-0.0498 0.63963,-0.11595 0.96484,-0.19726 0.32423,-0.0856 0.67354,-0.18598 1.05078,-0.30274 a 0.10153597,0.10153597 0 0 0 0.0723,-0.0976 v -0.97461 a 0.10153597,0.10153597 0 0 0 -0.15625,-0.0859 c -0.17151,0.10718 -0.39617,0.21454 -0.67383,0.32031 -0.27767,0.10129 -0.58495,0.19506 -0.92187,0.2793 l 0.002,-0.002 c -0.33691,0.0798 -0.6901,0.14451 -1.05859,0.19336 -0.36753,0.0487 -0.72978,0.0742 -1.0879,0.0742 -0.84333,0 -1.58162,-0.0849 -2.21093,-0.25195 h -0.002 c -0.62543,-0.17198 -1.14941,-0.41693 -1.57617,-0.73047 -0.42308,-0.31404 -0.74832,-0.69134 -0.97851,-1.13867 -0.215,-0.41783 -0.34181,-0.8883 -0.39844,-1.4043 h 9.7207 a 0.10153597,0.10153597 0 0 0 0.10157,-0.10156 v -0.20898 c 0,-0.75408 -0.11923,-1.43441 -0.35743,-2.03907 -0.23801,-0.60879 -0.58782,-1.12777 -1.04687,-1.55468 -0.45923,-0.4271 -1.02207,-0.75454 -1.6875,-0.98242 -0.66643,-0.22823 -1.42298,-0.3418 -2.26953,-0.3418 z m -82.3418,0.10156 a 0.10153597,0.10153597 0 0 0 -0.101562,0.10156 v 9.23047 a 0.10153597,0.10153597 0 0 0 0.101562,0.10156 h 0.839844 a 0.10153597,0.10153597 0 0 0 0.101562,-0.10156 v -3.84961 H 49.9375 c 0.13951,0 0.276608,-0.001 0.408203,-0.006 0.111624,-0.004 0.221206,-0.0105 0.330078,-0.0176 l 2.94336,3.9336 a 0.10153597,0.10153597 0 0 0 0.08203,0.041 h 1.054687 a 0.10153597,0.10153597 0 0 0 0.08008,-0.16406 l -3.056641,-3.94922 c 0.737007,-0.16127 1.297018,-0.43404 1.654297,-0.83984 0.380994,-0.43744 0.570312,-1.01899 0.570312,-1.72656 0,-0.45482 -0.07784,-0.85649 -0.232422,-1.20313 -0.155203,-0.34803 -0.403322,-0.63866 -0.738281,-0.86719 l -0.002,-0.002 c -0.332012,-0.23329 -0.753401,-0.40237 -1.263672,-0.51172 -0.511486,-0.11416 -1.121545,-0.16992 -1.830078,-0.16992 z m 11.460938,0 a 0.10153597,0.10153597 0 0 0 -0.101563,0.10156 v 9.23047 a 0.10153597,0.10153597 0 0 0 0.101563,0.10156 h 7.792968 a 0.10153597,0.10153597 0 0 0 0.101563,-0.10156 v -0.78711 A 0.10153597,0.10153597 0 0 0 64.597656,145.375 h -6.779297 v -3.49805 h 6.335938 a 0.10153597,0.10153597 0 0 0 0.101562,-0.10156 v -0.7793 a 0.10153597,0.10153597 0 0 0 -0.101562,-0.10156 h -6.335938 v -2.97461 h 6.677735 a 0.10153597,0.10153597 0 0 0 0.101562,-0.10156 v -0.78516 a 0.10153597,0.10153597 0 0 0 -0.101562,-0.10156 z m 19.923828,0 a 0.10153597,0.10153597 0 0 0 -0.101563,0.10156 v 0.76563 a 0.10153597,0.10153597 0 0 0 0.101563,0.10156 h 4.097656 v 8.36328 a 0.10153597,0.10153597 0 0 0 0.101562,0.10156 h 0.833985 a 0.10153597,0.10153597 0 0 0 0.101562,-0.10156 v -8.36328 h 4.095703 a 0.10153597,0.10153597 0 0 0 0.101563,-0.10156 v -0.76563 a 0.10153597,0.10153597 0 0 0 -0.101563,-0.10156 z m 24.306644,0 a 0.10153597,0.10153597 0 0 0 -0.10157,0.10156 v 9.23047 a 0.10153597,0.10153597 0 0 0 0.10157,0.10156 h 0.83984 a 0.10153597,0.10153597 0 0 0 0.10156,-0.10156 v -3.84961 h 3.6543 c 0.13951,0 0.27469,-0.001 0.40625,-0.006 0.11162,-0.004 0.2212,-0.0105 0.33008,-0.0176 l 2.94336,3.9336 a 0.10153597,0.10153597 0 0 0 0.082,0.041 h 1.05469 a 0.10153597,0.10153597 0 0 0 0.0801,-0.16406 l -3.05468,-3.94922 c 0.73681,-0.16129 1.29517,-0.43416 1.65234,-0.83984 0.381,-0.43744 0.57031,-1.01899 0.57031,-1.72656 0,-0.45482 -0.0778,-0.85649 -0.23242,-1.20313 -0.1552,-0.34803 -0.40332,-0.63866 -0.73828,-0.86719 l -0.002,-0.002 c -0.33202,-0.23329 -0.75341,-0.40237 -1.26368,-0.51172 -0.51142,-0.11415 -1.11959,-0.16992 -1.82812,-0.16992 z m 11.46093,0 a 0.10153597,0.10153597 0 0 0 -0.10156,0.10156 v 9.23047 a 0.10153597,0.10153597 0 0 0 0.10156,0.10156 h 7.79297 a 0.10153597,0.10153597 0 0 0 0.10156,-0.10156 v -0.78711 a 0.10153597,0.10153597 0 0 0 -0.10156,-0.10156 h -6.77734 v -3.49805 h 6.33398 a 0.10153597,0.10153597 0 0 0 0.10157,-0.10156 v -0.7793 a 0.10153597,0.10153597 0 0 0 -0.10157,-0.10156 h -6.33398 v -2.97461 h 6.67578 a 0.10153597,0.10153597 0 0 0 0.10156,-0.10156 v -0.78516 a 0.10153597,0.10153597 0 0 0 -0.10156,-0.10156 z m -19.763668,0.78125 c 0.812283,0 1.522488,0.0879 2.128906,0.26367 0.611463,0.17156 1.117627,0.42539 1.521484,0.75977 0.403961,0.33012 0.705677,0.73733 0.910157,1.22461 0.208687,0.48693 0.314453,1.05058 0.314453,1.69336 0,0.64276 -0.105803,1.20846 -0.314453,1.69531 -0.204506,0.48734 -0.505853,0.89573 -0.910157,1.23047 -0.404077,0.33022 -0.909597,0.58369 -1.521484,0.75976 -0.606724,0.17147 -1.316509,0.25782 -2.128906,0.25782 -0.812397,0 -1.526617,-0.0862 -2.142578,-0.25782 -0.611979,-0.1761 -1.12063,-0.42934 -1.529297,-0.75976 -0.408838,-0.3349 -0.714955,-0.74309 -0.923828,-1.23047 -0.208651,-0.48685 -0.314453,-1.05255 -0.314453,-1.69531 0,-0.63366 0.105674,-1.19255 0.314453,-1.67969 0.208884,-0.49176 0.515437,-0.90029 0.923828,-1.23047 0.408692,-0.33479 0.917639,-0.59157 1.529297,-0.76758 0.615659,-0.17591 1.330295,-0.26367 2.142578,-0.26367 z m 34.939458,0.0664 c 0.75731,0 1.40317,0.0956 1.93554,0.2832 0.54031,0.18889 0.97839,0.44185 1.32031,0.75781 0.34823,0.31776 0.60788,0.6835 0.78125,1.09961 0.16085,0.38199 0.25412,0.7838 0.29297,1.20313 h -8.77343 c 0.0638,-0.42059 0.18275,-0.82263 0.375,-1.20313 0.20893,-0.41786 0.49678,-0.78351 0.86328,-1.09765 0.36544,-0.3176 0.81194,-0.57078 1.34375,-0.75977 0.52855,-0.18783 1.14932,-0.2832 1.86133,-0.2832 z m -81.386724,0.14062 h 2.759766 c 0.736686,0 1.356035,0.0254 1.857422,0.0742 0.503455,0.0442 0.907995,0.13356 1.207031,0.26172 0.297906,0.12768 0.502204,0.30255 0.628906,0.52734 0.127108,0.22142 0.195313,0.52027 0.195313,0.90235 0,0.38644 -0.07036,0.68746 -0.201172,0.9082 a 0.10153597,0.10153597 0 0 0 0,0.002 c -0.126027,0.21547 -0.333748,0.38761 -0.636719,0.51563 -0.30415,0.12423 -0.708981,0.2097 -1.212891,0.2539 -0.506449,0.0399 -1.128887,0.0606 -1.865234,0.0606 h -2.732422 z m 55.691404,0 h 2.75977 c 0.73668,0 1.35603,0.0254 1.85742,0.0742 0.50345,0.0442 0.908,0.13356 1.20703,0.26172 0.29805,0.12774 0.50435,0.3029 0.63086,0.52734 0.12691,0.22106 0.19336,0.51994 0.19336,0.90235 0,0.38644 -0.0704,0.68746 -0.20117,0.9082 a 0.10153597,0.10153597 0 0 0 0,0.002 c -0.12603,0.21547 -0.33375,0.38761 -0.63672,0.51563 -0.30415,0.12423 -0.70897,0.2097 -1.21289,0.2539 -0.50645,0.0399 -1.12888,0.0606 -1.86524,0.0606 h -2.73242 z"
       transform="translate(-2.643382,5.0148166)" />
    <rect
       style="fill:none;fill-opacity:1;stroke:none;stroke-width:0.353799"
       id="rect9534"
       width="88.020103"
       height="18.742893"
       x="42.4911"
       y="137.29865" />
  </g>
</svg>
